<svg width="14" height="17" viewBox="0 0 14 17" fill="none" xmlns="http://www.w3.org/2000/svg">
<path d="M12.5445 6.77227C12.5445 11.2618 6.77227 15.11 6.77227 15.11C6.77227 15.11 1 11.2618 1 6.77227C1 5.24137 1.60815 3.77317 2.69066 2.69066C3.77317 1.60815 5.24137 1 6.77227 1C8.30317 1 9.77137 1.60815 10.8539 2.69066C11.9364 3.77317 12.5445 5.24137 12.5445 6.77227Z" stroke="#E8AF37" stroke-width="2" stroke-linecap="round" stroke-linejoin="round"/>
<path d="M6.77272 8.69632C7.83537 8.69632 8.69681 7.83488 8.69681 6.77223C8.69681 5.70959 7.83537 4.84814 6.77272 4.84814C5.71008 4.84814 4.84863 5.70959 4.84863 6.77223C4.84863 7.83488 5.71008 8.69632 6.77272 8.69632Z" stroke="#E8AF37" stroke-width="2" stroke-linecap="round" stroke-linejoin="round"/>
</svg>
